HIERARCHY
ROOT hip
{
	OFFSET 0.000000 0.000000 0.000000 
	CHANNELS 6 Xposition Yposition Zposition Xrotation Zrotation Yrotation
	JOINT abdomen
	{
		OFFSET 0.000000 3.402643 0.000000 
		CHANNELS 3 Xrotation Zrotation Yrotation
		JOINT chest
		{
			OFFSET 0.000000 8.438565 -0.680529 
			CHANNELS 3 Xrotation Zrotation Yrotation
			JOINT neck
			{
				OFFSET 0.000000 10.207942 -0.272212 
				CHANNELS 3 Xrotation Zrotation Yrotation
				JOINT head
				{
					OFFSET 0.000000 3.130431 0.000000 
					CHANNELS 3 Xrotation Zrotation Yrotation
					End Site
					{
						OFFSET 0.000000 3.130435 0.000000 
					}
				}
			}
			JOINT lCollar
			{
				OFFSET 3.470700 6.669187 -0.816635 
				CHANNELS 3 Yrotation Zrotation Xrotation
				JOINT lShldr
				{
					OFFSET 3.198488 0.000000 0.000000 
					CHANNELS 3 Zrotation Yrotation Xrotation
					JOINT lForeArm
					{
						OFFSET 10.139888 0.000000 0.000000 
						CHANNELS 3 Yrotation Zrotation Xrotation
						JOINT lHand
						{
							OFFSET 8.370511 0.000000 0.000000 
							CHANNELS 3 Zrotation Yrotation Xrotation
							End Site
							{
								OFFSET 4.083176 0.000000 0.000000 
							}
						}
					}
				}
			}
			JOINT rCollar
			{
				OFFSET -3.470700 6.669187 -0.816635 
				CHANNELS 3 Yrotation Zrotation Xrotation
				JOINT rShldr
				{
					OFFSET -3.198488 0.000000 0.000000 
					CHANNELS 3 Zrotation Yrotation Xrotation
					JOINT rForeArm
					{
						OFFSET -10.139888 0.000000 0.000000 
						CHANNELS 3 Yrotation Zrotation Xrotation
						JOINT rHand
						{
							OFFSET -8.370511 0.000000 0.000000 
							CHANNELS 3 Zrotation Yrotation Xrotation
							End Site
							{
								OFFSET -4.083176 0.000000 0.000000 
							}
						}
					}
				}
			}
		}
	}
	JOINT lThigh
	{
		OFFSET 5.308129 -1.633274 1.361059 
		CHANNELS 3 Xrotation Zrotation Yrotation
		JOINT lShin
		{
			OFFSET -2.041588 -20.007561 0.000000 
			CHANNELS 3 Xrotation Zrotation Yrotation
			JOINT lFoot
			{
				OFFSET 0.000000 -19.190928 -1.224953 
				CHANNELS 3 Xrotation Yrotation Zrotation
				End Site
				{
					OFFSET 0.000000 -2.449906 4.627600 
				}
			}
		}
	}
	JOINT rThigh
	{
		OFFSET -5.308129 -1.633274 1.361059 
		CHANNELS 3 Xrotation Zrotation Yrotation
		JOINT rShin
		{
			OFFSET 2.041588 -20.007561 0.000000 
			CHANNELS 3 Xrotation Zrotation Yrotation
			JOINT rFoot
			{
				OFFSET 0.000000 -19.190928 -1.224953 
				CHANNELS 3 Xrotation Yrotation Zrotation
				End Site
				{
					OFFSET 0.000000 -2.449906 4.627600 
				}
			}
		}
	}
}
MOTION
Frames: 13
Frame Time: 0.033333
-22.218111 49.388737 -16.029104 3.721286 -1.013484 -1.335607 0.000000 0.000000 0.000000 3.292132 1.491676 0.144613 6.906717 1.411335 0.122944 14.259398 -3.624892 0.275499 2.607612 6.035461 3.426867 -75.644966 -7.620703 14.552083 -36.748657 -2.745209 16.303402 0.122476 3.504846 -3.489084 1.312153 11.117760 3.511683 51.761875 0.269558 16.830727 45.331413 8.715689 6.003503 -0.463290 -8.583428 -3.562252 2.770262 12.842746 6.184368 4.509730 -1.933353 3.076837 -9.021668 0.866098 -10.935699 -12.592085 -8.413338 -7.138852 10.482052 4.067779 -12.285986 0.472520 0.016401 4.114640 
-23.159878 49.395153 -15.688447 3.369283 -0.526432 -0.284987 0.000000 0.000000 0.000000 3.995995 1.743800 -0.336947 7.132768 1.386998 -0.795315 15.945650 -2.692617 -0.385951 2.076973 6.317268 4.067897 -76.054344 -5.243261 13.779430 -37.361683 -2.771027 14.604515 -0.979861 5.366700 -3.534282 0.589301 11.277099 4.186901 52.339413 1.141849 16.368837 44.455723 8.814095 7.041256 -0.130270 -7.702371 -3.559963 4.803868 13.016648 7.007843 1.267084 -1.912151 3.090331 -7.233832 0.734921 -11.797419 -12.899831 -8.232032 -6.931211 13.384501 3.991939 -10.982554 -2.074925 -0.076538 3.891953 
-23.863846 49.438316 -15.447082 2.958985 0.029258 0.685111 0.000000 0.000000 0.000000 4.866779 2.169890 -0.684190 7.683144 1.819556 -1.333673 16.903326 -2.628469 -0.549363 1.532378 6.874092 4.860619 -76.269318 -3.544236 14.238213 -37.658939 -3.323658 13.347624 -1.948349 6.327627 -3.580208 0.175116 12.556168 4.984237 51.087891 1.305135 16.144356 44.687595 8.825587 7.934821 -0.594101 -7.877127 -3.542256 4.842079 12.771397 6.477051 1.860807 -1.013097 3.867595 -7.282940 0.838587 -13.098994 -12.503492 -8.353948 -7.767641 14.851410 4.539900 -11.588674 -3.661856 -0.101143 3.045068 
-24.301199 49.473679 -15.453876 4.415637 1.528654 -0.018471 0.000000 0.000000 0.000000 4.582837 1.985823 0.071497 7.456115 1.755579 -0.752821 17.499298 -2.576100 -0.696070 1.695807 8.400578 4.601487 -78.513519 -2.142917 14.563929 -37.346985 -3.049759 14.605755 -4.193539 6.093143 -3.628541 0.802076 13.037365 4.721360 50.667049 0.590861 15.098301 45.200005 8.164077 10.195754 -0.769544 -8.171517 -3.537033 3.093122 11.301950 5.152146 2.200619 -0.777848 7.671675 -4.255873 0.533792 -13.708775 -14.730216 -9.526085 -7.974703 16.219379 4.852929 -10.318347 -4.476215 -0.097249 2.312240 
-24.826620 49.499104 -15.144679 3.809526 1.266727 0.426333 0.000000 0.000000 0.000000 5.506032 3.081447 0.082143 7.889956 2.419633 -0.936221 18.390306 -2.752386 -1.041369 1.724875 9.500467 5.398538 -79.489075 -0.970669 14.726532 -37.774914 -2.760460 16.592260 -5.604905 5.850070 -3.649400 0.655058 13.358615 5.565495 50.101765 0.550630 15.692628 45.614773 8.457293 10.405363 -1.214416 -8.952079 -3.524763 0.975199 11.185032 5.345759 6.238963 -0.498121 14.324211 -3.383056 0.425982 -14.455038 -13.748362 -8.524101 -7.761889 16.239626 4.599437 -11.557437 -5.021089 -0.104136 2.143115 
-25.261824 49.572968 -14.987879 4.093869 1.821515 0.325907 0.000000 0.000000 0.000000 5.810468 3.303291 0.345726 8.380648 2.693766 -0.904454 19.305189 -2.245452 -1.371557 2.218529 9.812848 5.623090 -80.240547 0.301783 14.598090 -38.036171 -2.595335 17.186399 -5.622289 5.633985 -3.636764 0.755456 13.500961 5.843420 49.251785 0.695754 16.520159 44.983112 8.948915 10.946462 -0.623025 -8.348512 -3.549921 -2.001543 10.424082 4.927194 10.244739 -0.369730 19.811792 -2.044065 0.291977 -15.193996 -13.845891 -8.387376 -7.651357 16.066345 4.458644 -12.104986 -5.246918 -0.085324 1.738161 
-25.624352 49.634892 -14.809057 4.272017 2.609926 0.390446 0.000000 0.000000 0.000000 6.202167 3.368883 0.678906 8.802100 2.695276 -1.084206 19.818882 -1.599731 -2.016524 2.390768 9.443897 5.994247 -80.814621 1.036696 14.117019 -38.729874 -2.305312 16.661377 -5.298104 5.377572 -3.607527 0.809451 13.888653 6.232070 47.261269 0.894764 17.191942 44.909019 9.325377 10.806657 0.574363 -8.462497 -3.603765 -5.396616 9.387219 4.192719 15.171993 -0.301740 23.356232 -0.833380 0.124797 -15.942367 -13.749865 -8.837953 -7.598702 16.568924 4.557641 -10.220472 -6.182478 -0.070035 1.333871 
-25.911674 49.665592 -14.581912 3.992328 3.614279 -0.079837 0.000000 0.000000 0.000000 6.777254 3.054718 0.401914 9.534868 2.566448 -1.096620 21.158194 -1.734872 -1.714528 3.251841 8.564231 6.441388 -80.858368 2.277896 13.572230 -39.374680 -2.183396 16.028170 -4.876657 4.588645 -3.560723 0.989811 13.510959 6.698453 45.892902 1.482677 18.300018 44.060200 9.780365 11.902400 1.033858 -8.220086 -3.620783 -7.988772 8.223135 3.683986 19.981148 -0.593574 24.171968 -0.161321 0.027225 -16.382273 -13.669896 -9.519762 -7.758528 17.367895 4.528954 -9.322065 -6.923440 -0.058629 1.031906 
-26.157003 49.703220 -14.343562 3.935687 4.062695 -0.852858 0.000000 0.000000 0.000000 7.365890 3.312344 1.190079 9.675155 2.381818 -0.865453 21.264042 -1.476885 -2.460769 3.155136 8.225663 7.024756 -81.596687 1.938927 12.882046 -39.763248 -1.638143 15.893157 -4.567514 4.263196 -3.539253 1.267936 13.262494 7.253469 44.637878 2.138300 17.882668 43.809113 9.819914 13.881858 0.711698 -8.493481 -3.605281 -9.279724 7.327451 3.510108 21.458014 -0.592895 28.100395 1.146453 -0.151930 -16.595388 -13.462829 -9.566704 -7.700414 17.427208 4.529462 -8.469826 -7.290631 -0.051217 0.704567 
-26.420219 49.718193 -14.154925 4.102722 4.178755 -1.340530 0.000000 0.000000 0.000000 7.718335 3.348365 0.893360 10.050652 2.590949 -0.813301 21.765949 -1.996948 -1.990388 3.105724 8.242381 7.328275 -81.794884 2.262059 12.568456 -40.053234 -1.401306 16.365124 -4.985175 3.907930 -3.519014 1.107022 13.228491 7.560033 43.590137 3.283344 18.020767 42.973366 10.050936 15.091944 -0.199998 -8.772987 -3.568212 -10.601696 6.930929 3.421861 22.454205 -0.879820 29.230856 1.395633 -0.190639 -16.128870 -13.424722 -9.235689 -7.571408 17.485474 4.587698 -7.989514 -7.723870 -0.018195 0.291791 
-26.645403 49.731281 -13.915825 3.967333 4.500952 -1.943454 0.000000 0.000000 0.000000 8.087381 3.006960 0.720479 10.743150 2.859958 -0.820370 21.545578 -2.484162 -1.498716 2.396836 8.458873 7.724335 -81.701431 2.364498 12.617858 -39.926964 -1.258991 18.165258 -6.025599 3.744605 -3.517215 0.803535 13.739244 7.937856 42.160725 4.032069 17.513861 42.478622 10.099373 14.907974 -0.278313 -8.758143 -3.572850 -9.771850 6.149893 3.929702 18.899889 -1.669190 34.138588 1.582425 -0.195804 -13.995210 -13.217538 -9.282525 -7.630185 17.692541 4.647326 -7.419253 -8.115223 -0.012922 -0.005977 
-26.863489 49.729019 -13.800679 4.330717 4.654699 -2.274423 0.000000 0.000000 0.000000 8.331410 2.947138 0.646670 10.942718 2.570569 -0.742437 21.257259 -1.924780 -1.545412 2.121976 8.050020 7.985437 -80.655006 0.889103 13.873745 -39.755627 -1.898687 18.427677 -5.868721 3.899621 -3.528211 0.741409 13.218293 8.162272 41.634697 4.712678 16.203655 42.803276 9.873309 13.569500 -1.935138 -8.879144 -3.488524 -12.675063 5.908046 3.450206 22.721731 -1.761037 31.755676 1.723097 -0.199592 -14.290443 -13.609531 -9.108130 -7.448410 17.852541 4.644582 -7.328077 -8.388308 0.022517 -0.225874 
-27.034157 49.739079 -13.614935 4.850063 4.661059 -2.319504 0.000000 0.000000 0.000000 8.282446 2.937840 0.330253 11.136122 2.469386 -0.828915 20.827551 -1.956599 -1.361387 1.791226 7.747693 7.957828 -79.351364 -0.613345 15.246722 -39.421139 -2.880260 17.351336 -5.548296 4.982706 -3.587842 0.503299 13.156431 8.126086 41.153465 5.444829 15.038304 42.113335 9.636370 12.574019 -0.592109 -9.002165 -3.556468 -14.841202 5.536069 3.114317 24.185946 -2.014837 31.090887 1.915360 -0.212289 -13.581305 -14.020042 -8.649677 -7.185856 17.702868 4.335027 -8.825888 -8.427696 0.001914 -0.063577 
